<?xml version="1.0" encoding="UTF-8" standalone="no"?>
<!-- Created with Inkscape (http://www.inkscape.org/) -->

<svg
   xmlns:dc="http://purl.org/dc/elements/1.1/"
   xmlns:cc="http://creativecommons.org/ns#"
   xmlns:rdf="http://www.w3.org/1999/02/22-rdf-syntax-ns#"
   xmlns:svg="http://www.w3.org/2000/svg"
   xmlns="http://www.w3.org/2000/svg"
   xmlns:sodipodi="http://sodipodi.sourceforge.net/DTD/sodipodi-0.dtd"
   xmlns:inkscape="http://www.inkscape.org/namespaces/inkscape"
   id="svg2"
   version="1.1"
   inkscape:version="0.48.4 r9939"
   width="1512.9054"
   height="706.77246"
   sodipodi:docname="collision-stats.svg">
  <metadata
     id="metadata8">
    <rdf:RDF>
      <cc:Work
         rdf:about="">
        <dc:format>image/svg+xml</dc:format>
        <dc:type
           rdf:resource="http://purl.org/dc/dcmitype/StillImage" />
        <dc:title />
      </cc:Work>
    </rdf:RDF>
  </metadata>
  <defs
     id="defs6" />
  <sodipodi:namedview
     pagecolor="#ffffff"
     bordercolor="#666666"
     borderopacity="1"
     objecttolerance="10"
     gridtolerance="10"
     guidetolerance="10"
     inkscape:pageopacity="0"
     inkscape:pageshadow="2"
     inkscape:window-width="1920"
     inkscape:window-height="1098"
     id="namedview4"
     showgrid="false"
     fit-margin-top="0"
     fit-margin-left="0"
     fit-margin-right="0"
     fit-margin-bottom="0"
     inkscape:zoom="0.63479971"
     inkscape:cx="705.75242"
     inkscape:cy="171.80783"
     inkscape:window-x="0"
     inkscape:window-y="31"
     inkscape:window-maximized="1"
     inkscape:current-layer="svg2" />
  <path
     style="fill:#000000"
     d="m 105.47032,334.14329 0,-298.999998 14,0 c 8.66667,0 14,0.38095 14,1 0,0.61538 -5,1 -13,1 l -13,0 0,28.5 0,28.499998 13,0 c 8,0 13,0.38462 13,1 0,0.61538 -5,1 -13,1 l -13,0 0,29 0,29 13,0 c 8,0 13,0.38462 13,1 0,0.61538 -5,1 -13,1 l -13,0 0,29 0,29 13,0 c 8,0 13,0.38462 13,1 0,0.61538 -5,1 -13,1 l -13,0 0,28.5 0,28.5 13,0 c 8,0 13,0.38462 13,1 0,0.61538 -5,1 -13,1 l -13,0 0,29 0,29 13,0 c 8,0 13,0.38462 13,1 0,0.61538 -5,1 -13,1 l -13,0 0,29 0,29 13,0 c 8,0 13,0.38462 13,1 0,0.61538 -5,1 -13,1 l -13,0 0,28.5 0,28.5 13,0 c 8,0 13,0.38462 13,1 0,0.61538 -5,1 -13,1 l -13,0 0,29 0,29 13,0 c 8,0 13,0.38462 13,1 0,0.61538 -5,1 -13,1 l -13,0 0,28.54569 0,28.54569 6.58375,-0.29569 6.58375,-0.29569 10.81939,-43 c 26.70471,-106.13377 50.17832,-182.36802 74.66919,-242.5 7.36617,-18.08603 31.16853,-67.04924 38.64713,-79.5 21.93869,-36.52465 55.69694,-70.71822 95.69679,-96.93081 40.06935,-26.258137 90.49631,-46.699678 143.14169,-58.025238 29.63606,-6.37558 63.83299,-10.77231 98.18554,-12.62381 15.39302,-0.82964 129.93639,-0.83312 439.00015,-0.0134 229.9951,0.61005 429.0853,1.10559 442.4228,1.10119 23.8584,-0.008 24.25,0.0254 24.25,2.06177 l 0,2.06976 -270.75,-0.70183 c -148.9125,-0.38601 -353.32515,-0.7549 -454.25018,-0.81976 -168.76345,-0.10845 -184.9857,0.0248 -202,1.65895 -49.4411,4.74867 -89.19079,12.77388 -127.40691,25.72263 -45.18391,15.309651 -82.50859,35.248058 -116.002,61.966918 -14.75049,11.76697 -16.75969,14.10661 -5.38475,6.27031 35.03605,-24.13664 74.21184,-39.99485 116.89036,-47.316767 15.53006,-2.66434 54.12769,-3.76485 70.80358,-2.01878 6.03388,0.63178 84.68722,11.884537 174.78521,25.006117 l 163.81454,23.85742 11,-1.35673 C 995.69058,117.455 1254.3211,100.87055 1455.4705,96.659931 c 14.575,-0.3051 30.2125,-0.794641 34.75,-1.08787 7.7253,-0.49924 8.25,-0.40769 8.25,1.43942 0,2.55412 -3.6697,2.88248 -40.5,3.623959 -149.3844,3.00748 -349.4395,13.89959 -488.00015,26.56945 -57.2784,5.23749 -111.6867,10.96719 -112.7338,11.87193 -0.4036,0.34871 142.24647,21.46551 317.00015,46.92622 174.7536,25.4607 318.5213,46.51332 319.4838,46.78358 0.9625,0.27027 1.75,1.39683 1.75,2.50346 0,1.66173 -0.4788,1.91625 -2.75,1.46175 -1.5125,-0.30267 -149.675,-21.97608 -329.25,-48.16314 l -326.50015,-47.61283 -25,3.13203 c -173.97601,21.79591 -311.88205,52.15247 -381.50003,83.97766 -6.875,3.14284 -13.60208,6.16433 -14.94907,6.71441 -2.25082,0.91919 -1.31988,1.59428 11.5,8.33946 33.41506,17.58134 63.34729,34.65802 110.44907,63.01245 100.00087,60.19872 246.71962,133.03898 351.50003,174.50633 70.0697,27.73042 114.81045,41.05047 206.73835,61.5495 142.9798,31.88308 287.339,53.5035 377.2166,56.49501 20.4253,0.67984 21.5452,0.86027 21.5452,3.4714 0,1.72004 -0.5132,1.92814 -3.75,1.52053 -2.0625,-0.25973 -11.175,-0.73324 -20.25,-1.05225 C 1376.279,599.33131 1222.0412,575.63634 1076.2871,542.0855 993.53818,523.03776 954.57525,511.18864 887.25445,484.59837 780.23509,442.32804 633.57861,369.17935 526.33553,304.58078 483.56426,278.81723 443.21945,256.06683 416.67549,242.74356 l -9.29483,-4.66537 -18.20517,8.94687 c -34.36614,16.88911 -65.42757,36.04778 -91.49175,56.43205 l -6.28658,4.91661 8.49967,2.85621 c 26.62818,8.94809 50.92152,25.66339 84.00882,57.80322 30.43353,29.56205 38.30652,36.55733 39.81441,35.3758 0.68764,-0.53881 5.91721,-4.64401 11.62125,-9.12266 5.70405,-4.47865 10.76655,-8.143 11.25,-8.143 2.34869,0 -0.0523,2.41696 -10.67137,10.74216 l -11.55037,9.05537 8.88813,7.85124 c 58.03605,51.26551 125.83954,95.10281 187.21262,121.03942 52.29229,22.09902 108.27706,38.73686 176.00003,52.30457 66.9194,13.40673 127.8358,20.63596 215.25015,25.54472 l 11.75,0.65982 0,-4.09865 c 0,-2.25426 0.45,-4.09865 1,-4.09865 0.55,0 1,2.25 1,5 0,3.71641 0.3747,5 1.4597,5 0.8028,0 11.7153,0.66088 24.25,1.46863 29.6772,1.91243 78.3839,4.32169 104.5403,5.17105 l 20.75,0.6738 0,-8.65674 c 0,-5.10449 0.4103,-8.65674 1,-8.65674 0.5913,0 1,3.61436 1,8.84307 l 0,8.84308 23.25,0.65928 c 12.7875,0.36261 46.7625,0.9555 75.5,1.31754 l 52.25,0.65825 0,-10.16061 c 0,-6.10707 0.3989,-10.16061 1,-10.16061 0.6133,0 1,4.83333 1,12.5 l 0,12.5 76,0 76,0 0,-12.5 c 0,-7.66667 0.3867,-12.5 1,-12.5 0.6173,0 1,5.16667 1,13.5 l 0,13.5 -690.00015,0 -690.00003,0 z m 153,284.5 c 0,-7.66667 0.38667,-12.5 1,-12.5 0.61333,0 1,4.83333 1,12.5 l 0,12.5 75.5,0 75.5,0 0,-12.5 c 0,-7.66667 0.38667,-12.5 1,-12.5 0.61333,0 1,4.83333 1,12.5 l 0,12.5 65.25,-0.1308 c 43.32203,-0.0868 62.56151,-0.42421 57.25,-1.0039 -89.64274,-9.78345 -199.53925,-43.98852 -305.5,-95.08625 -22.58463,-10.89105 -30.81491,-13.72204 -42.09154,-14.47834 -10.96421,-0.73535 -16.60665,0.62008 -26.36792,6.3341 -12.82708,7.50868 -23.03164,19.20232 -31.59287,36.20301 l -3.85853,7.66218 3.45543,0.31037 c 4.74551,0.42623 4.37355,2.18963 -0.46186,2.18963 -3.695,0 -4.00662,0.24117 -5.49135,4.25 -0.86573,2.3375 -3.82483,14.375 -6.57576,26.75 -2.75094,12.375 -5.23841,23.5125 -5.52771,24.75 l -0.52599,2.25 73.51905,0 73.51905,0 z m 306,0 c 0,-7.66667 0.38667,-12.5 1,-12.5 0.61333,0 1,4.83333 1,12.5 l 0,12.5 75.5,0 75.5,0 0,-12.5 c 0,-7.66667 0.38667,-12.5 1,-12.5 0.61333,0 1,4.83333 1,12.5 l 0,12.5 75.50003,0 75.5,0 0,-12.5 c 0,-6.875 -0.1314,-12.5 -0.292,-12.5 -1.4898,0 -59.0623,-7.64421 -72.208,-9.58745 -70.55364,-10.42947 -135.44919,-23.83807 -183.82357,-37.9813 -32.19125,-9.41175 -42.77547,-13.50352 -91.17646,-35.24803 -20.88231,-9.38153 -111.60002,-54.61441 -159,-79.2792 -19.25,-10.01682 -39.725,-19.99945 -45.5,-22.18361 -22.4582,-8.49391 -45.01193,-12.47183 -64.5,-11.37619 -44.18997,2.48439 -74.73747,28.06521 -102.37619,85.73096 -8.01293,16.71829 -13.25884,29.79367 -15.62877,38.9546 -0.92061,3.55862 -2.01773,6.92022 -2.43803,7.47022 -0.75615,0.98948 -3.07841,9.5 -2.59226,9.5 0.13865,0 1.95546,-2.5875 4.03735,-5.75 6.67376,-10.13776 17.34522,-19.59095 28.19247,-24.97395 9.70183,-4.17548 13.63936,-4.76664 22.21481,-4.74655 2.46206,0.16614 13.37681,0.30164 21.77233,3.20806 5.04994,1.74823 14.49994,5.83681 21,9.08574 63.93479,31.95656 148.17893,63.1084 218.00379,80.61356 34.94708,8.76126 88.14687,17.51677 106.65812,17.55355 3.99813,0.008 4.93491,0.35875 5.36663,2.00963 0.37046,1.41665 1.36402,2 3.40638,2 l 2.88337,-4e-5 z m -289.99946,-72.25 c 2.9e-4,-0.4125 3.67029,-4.10635 8.15554,-8.20856 8.08221,-7.39197 8.16811,-7.43882 9.62235,-5.24863 l 1.46733,2.20993 15.44326,-8.1019 c 8.49379,-4.45605 15.72099,-7.82416 16.06045,-7.48471 1.00114,1.00115 -0.51377,1.95917 -15.96469,10.09596 -13.40211,7.05784 -14.62187,7.9238 -13.66898,9.70428 0.57543,1.07521 0.81469,2.18647 0.53169,2.46947 -0.42868,0.42868 -19.95117,5.31416 -21.2355,5.31416 -0.2266,0 -0.41175,-0.3375 -0.41145,-0.75 z m 748.99964,79.31127 0,-5.43872 -4.25,-0.53577 c -2.3375,-0.29467 -11.225,-1.01421 -19.75008,-1.59898 -32.37507,-2.22074 -113.40027,-9.7675 -123.75007,-11.52618 l -3.25,-0.55225 0,12.54532 0,12.54531 75.5,0 75.50015,0 z m 153,3.5951 c 0,-1.71391 -1.5303,-1.89202 -21.75,-2.53137 -26.389,-0.83442 -72.4733,-3.10649 -104.0697,-5.13089 -12.8258,-0.82176 -23.7383,-1.49411 -24.25,-1.49411 -0.5117,0 -0.9303,2.475 -0.9303,5.5 l 0,5.5 75.5,0 c 72.6988,0 75.5,-0.0684 75.5,-1.84363 z m 107.5,0.8118 c -25.3,-0.37259 -59.3875,-1.02961 -75.75,-1.46004 -27.2047,-0.71564 -29.75,-0.64252 -29.75,0.85464 0,1.50346 6.1893,1.62275 75.75,1.46004 75.0104,-0.17546 75.3009,-0.1838 29.75,-0.85464 z M 112.0265,606.64492 c 0.64664,-5.83039 2.59234,-13.86285 6.00806,-24.80325 1.33967,-4.29089 2.43576,-8.00339 2.43576,-8.25 0,-0.24661 -2.925,-0.44838 -6.5,-0.44838 l -6.5,0 0.0843,27.75 0.0843,27.75 1.91642,-8.49837 c 1.05403,-4.67411 2.16605,-10.74911 2.47115,-13.5 z m 670.17299,-17.1058 c -0.33229,-0.33229 -1.1948,-0.36781 -1.91667,-0.0789 -0.79773,0.31922 -0.56078,0.55618 0.60417,0.60416 1.05416,0.0434 1.64479,-0.19293 1.3125,-0.52522 z m -5.47917,-1.05811 c -0.6875,-0.27741 -1.8125,-0.27741 -2.5,0 -0.6875,0.27741 -0.125,0.50439 1.25,0.50439 1.375,0 1.9375,-0.22698 1.25,-0.50439 z m -30.75,-7.24215 c -67.89168,-17.10366 -125.17856,-37.83406 -169.5,-61.33694 -47.91226,-25.40704 -93.86003,-56.99658 -138.53411,-95.24356 -7.71876,-6.60829 -14.79074,-12.61979 -15.71551,-13.35889 -1.47984,-1.18273 -3.2457,-0.1153 -14.73099,8.90457 -12.45892,9.78449 -12.97376,10.33219 -11.37396,12.09995 0.9216,1.01836 1.4909,2.02364 1.26511,2.23395 -0.82056,0.76429 -19.83777,8.60535 -20.87088,8.60535 -0.58427,0 1.97126,-4.05 5.67897,-9 3.70771,-4.95 7.15069,-9 7.65108,-9 0.50039,0 1.4496,0.73821 2.10934,1.64046 1.05751,1.44623 2.66892,0.48586 13.61024,-8.11146 6.82589,-5.36356 12.5316,-10.06444 12.67936,-10.44641 0.14776,-0.38196 -2.7701,-3.36931 -6.48411,-6.63854 -3.71402,-3.26923 -15.75991,-14.72517 -26.76865,-25.45766 -22.81257,-22.2401 -28.08545,-26.87851 -41.94562,-36.89836 -12.83458,-9.27844 -26.54592,-16.98856 -39.07027,-21.96988 -16.7067,-6.64478 -15.46638,-6.81983 -28.12791,3.96996 -14.7515,12.57081 -39.62595,37.72412 -52.27956,52.86565 -22.08679,26.42946 -43.49113,57.94694 -55.15683,81.21736 -3.71703,7.41461 -3.6106,7.36694 2.61454,-1.17112 15.1072,-20.72023 31.7363,-34.21515 51.33433,-41.65907 20.73563,-7.87601 48.1916,-8.28789 76.55913,-1.14851 18.14994,4.56788 31.18225,10.09625 63.0563,26.7488 35.92916,18.77114 133.5101,67.76385 152.74786,76.6905 38.52612,17.87679 59.23823,26.45923 81.25214,33.66834 41.78686,13.68435 94.32549,25.94358 161,37.56734 19.37793,3.37827 16.64463,2.19256 -11,-4.77183 z M 176.42713,432.14329 c 25.57617,-42.24027 62.03945,-85.29515 97.39379,-115 l 7.73622,-6.5 -6.29341,-0.76356 c -12.23414,-1.48434 -27.35059,1.71366 -40.0288,8.4684 -9.07797,4.8366 -22.72322,18.26737 -28.61194,28.16223 -11.70715,19.6716 -20.90398,38.98349 -32.54764,68.34487 -6.45825,16.28552 -21.65174,59.34216 -21.57999,61.15524 0.0138,0.34805 3.97359,-7.01718 8.79958,-16.36718 4.82598,-9.35 11.63547,-21.725 15.13219,-27.5 z m 1.03855,-37 c 6.66139,-15.75195 20.56346,-43.47217 26.0787,-52 6.40956,-9.91066 10.73861,-14.8034 18.7221,-21.15995 16.10541,-12.82333 35.34235,-18.3897 55.0244,-15.92178 l 8.23712,1.03285 12.72116,-9.61049 c 26.08986,-19.71018 54.37591,-37.08515 86.0547,-52.85992 l 18.33353,-9.12937 -14.33353,-6.07431 c -16.19602,-6.86358 -21.34772,-8.61906 -31.33354,-10.67707 -17.23462,-3.55194 -33.20925,-2.93769 -49.97818,1.92176 -33.34799,9.66386 -61.55793,35.27968 -88.07771,79.97828 -6.99561,11.79097 -21.25014,40.79249 -28.75782,58.50913 -6.11354,14.42676 -18.68629,47.16921 -18.68629,48.66357 0,1.3066 0.7879,-0.35881 5.99536,-12.6727 z m 36.50789,-94.62079 c 22.14227,-37.89811 44.48689,-61.76778 70.34995,-75.15139 18.41107,-9.52736 30.63661,-12.52464 51.1468,-12.53941 21.10573,-0.0152 32.56506,2.78646 58.63628,14.33589 9.35671,4.14497 14.27861,5.82495 15.73893,5.37212 1.16863,-0.36238 8.19979,-3.47166 15.62479,-6.9095 24.82212,-11.4929 48.68509,-19.89379 86,-30.27609 72.12929,-20.06886 186.31818,-41.25765 295.00003,-54.73994 7.425,-0.92109 13.5835,-1.74989 13.6856,-1.84178 0.3205,-0.2884 -311.69252,-45.651937 -321.68563,-46.769827 -14.83512,-1.65956 -53.90749,-0.51251 -68.62009,2.01447 -40.21111,6.906527 -77.54831,21.719957 -111.05389,44.060347 -33.8826,22.59178 -51.64161,40.32172 -69.04647,68.93347 -13.27826,21.82807 -30.20957,58.65418 -45.11771,98.13243 -7.14244,18.91388 -15.18963,41.71521 -15.12684,42.86116 0.0193,0.35136 4.23379,-7.96552 9.36563,-18.48195 5.13184,-10.51644 11.92802,-23.56644 15.10262,-29 z m 339.49675,196.14724 c 0,-0.7217 17.18398,-13.52645 18.1525,-13.52645 0.46612,0 0.8475,0.68912 0.8475,1.53138 0,2.8725 2.51466,2.49762 13.87375,-2.06826 6.24661,-2.51087 11.57551,-4.34719 11.842,-4.0807 1.18447,1.18447 -1.39364,2.59983 -12.20041,6.69796 -7.81599,2.96397 -11.38463,4.79141 -11.03383,5.65024 0.28517,0.69816 0.75982,1.86147 1.05478,2.58513 0.40587,0.99579 -1.96508,1.60511 -9.75,2.50568 -11.39287,1.31795 -12.78629,1.39478 -12.78629,0.70502 z m -13,-190.79707 c 0,-0.29055 4.03628,-3.53356 8.96952,-7.20668 8.50841,-6.33508 11.03048,-7.24136 11.03048,-3.96368 0,0.79254 0.44378,1.44098 0.98618,1.44098 0.5424,0 7.8549,-2.7499 16.25,-6.1109 8.3951,-3.36099 15.82632,-6.33413 16.51382,-6.60698 0.6875,-0.27286 1.24476,0.11455 1.23836,0.86089 -0.007,0.82591 -6.4823,3.86389 -16.54529,7.76255 -16.34833,6.33377 -16.527,6.43584 -15.94031,9.10698 0.58922,2.68274 0.54631,2.70605 -6.20472,3.37063 -3.73892,0.36806 -8.93554,0.94039 -11.54804,1.27185 -2.6125,0.33145 -4.75,0.36492 -4.75,0.0744 z"
     id="path2989"
     inkscape:connector-curvature="0"
     sodipodi:nodetypes="ccssscccssscccssscccssscccssscccssscccssscccssscccssscccccssssssssscssssssssscsssssscssssscssssssssssssssscsscsssssscsssscsssssscssscsscssscccsssccccssscccssscsssssscssssscccsssscccssscccsssssssssssssccssscsccscsscscsssscccsssccccccssssscssssssscssscccscccccccsssssssssssssssssssssssssssssssssscsssscsssssscsscssssssssssssssscssssscsssssssssssssssssccssssss" />
  <text
     xml:space="preserve"
     style="font-size:32px;font-style:normal;font-variant:normal;font-weight:normal;font-stretch:normal;text-align:start;line-height:128.99999619%;letter-spacing:0px;word-spacing:0px;writing-mode:lr-tb;text-anchor:start;fill:#000000;fill-opacity:1;stroke:none;font-family:Sans;-inkscape-font-specification:Sans"
     x="1167.3429"
     y="24.3125"
     id="text2982"
     sodipodi:linespacing="129%"><tspan
       sodipodi:role="line"
       id="tspan2984"
       x="1167.3429"
       y="24.3125"
       style="font-size:32px;font-style:normal;font-variant:normal;font-weight:normal;font-stretch:normal;text-align:start;line-height:128.99999619%;writing-mode:lr-tb;text-anchor:start;font-family:Sans;-inkscape-font-specification:Sans">0.01-persistent CSMA</tspan></text>
  <text
     xml:space="preserve"
     style="font-size:32px;font-style:normal;font-variant:normal;font-weight:normal;font-stretch:normal;text-align:start;line-height:128.99999619%;letter-spacing:0px;word-spacing:0px;writing-mode:lr-tb;text-anchor:start;fill:#000000;fill-opacity:1;stroke:none;font-family:Sans;-inkscape-font-specification:Sans"
     x="1166.1216"
     y="89.027184"
     id="text2986"
     sodipodi:linespacing="129%"><tspan
       sodipodi:role="line"
       id="tspan2988"
       x="1166.1216"
       y="89.027184">Nonpersistent CSMA</tspan></text>
  <text
     xml:space="preserve"
     style="font-size:32px;font-style:normal;font-variant:normal;font-weight:normal;font-stretch:normal;text-align:start;line-height:128.99999619%;letter-spacing:0px;word-spacing:0px;writing-mode:lr-tb;text-anchor:start;fill:#000000;fill-opacity:1;stroke:none;font-family:Sans;-inkscape-font-specification:Sans"
     x="1163.8938"
     y="170.89923"
     id="text2990"
     sodipodi:linespacing="129%"><tspan
       sodipodi:role="line"
       id="tspan2992"
       x="1163.8938"
       y="170.89923">0.1-persistent CSMA</tspan></text>
  <text
     xml:space="preserve"
     style="font-size:32px;font-style:normal;font-variant:normal;font-weight:normal;font-stretch:normal;text-align:start;line-height:128.99999619%;letter-spacing:0px;word-spacing:0px;writing-mode:lr-tb;text-anchor:start;fill:#000000;fill-opacity:1;stroke:none;font-family:Sans;-inkscape-font-specification:Sans"
     x="599.97919"
     y="267.80899"
     id="text2994"
     sodipodi:linespacing="129%"><tspan
       sodipodi:role="line"
       id="tspan2996"
       x="599.97919"
       y="267.80899">0.5-persistent</tspan><tspan
       sodipodi:role="line"
       x="599.97919"
       y="309.08899"
       id="tspan2998">CSMA</tspan></text>
  <text
     xml:space="preserve"
     style="font-size:32px;font-style:normal;font-variant:normal;font-weight:normal;font-stretch:normal;text-align:start;line-height:128.99999619%;letter-spacing:0px;word-spacing:0px;writing-mode:lr-tb;text-anchor:start;fill:#000000;fill-opacity:1;stroke:none;font-family:Sans;-inkscape-font-specification:Sans"
     x="452.38672"
     y="370.2883"
     id="text3000"
     sodipodi:linespacing="129%"><tspan
       sodipodi:role="line"
       id="tspan3002"
       x="452.38672"
       y="370.2883">Slotted</tspan><tspan
       sodipodi:role="line"
       x="452.38672"
       y="411.5683"
       id="tspan3004">ALOHA</tspan></text>
  <text
     xml:space="preserve"
     style="font-size:32px;font-style:normal;font-variant:normal;font-weight:normal;font-stretch:normal;text-align:start;line-height:128.99999619%;letter-spacing:0px;word-spacing:0px;writing-mode:lr-tb;text-anchor:start;fill:#000000;fill-opacity:1;stroke:none;font-family:Sans;-inkscape-font-specification:Sans"
     x="599.97919"
     y="468.8689"
     id="text3006"
     sodipodi:linespacing="129%"><tspan
       sodipodi:role="line"
       id="tspan3008"
       x="599.97919"
       y="468.8689">1-persistent</tspan><tspan
       sodipodi:role="line"
       x="599.97919"
       y="510.1489"
       id="tspan3010">CSMA</tspan></text>
  <text
     xml:space="preserve"
     style="font-size:32px;font-style:normal;font-variant:normal;font-weight:normal;font-stretch:normal;text-align:start;line-height:128.99999619%;letter-spacing:0px;word-spacing:0px;writing-mode:lr-tb;text-anchor:start;fill:#000000;fill-opacity:1;stroke:none;font-family:Sans;-inkscape-font-specification:Sans"
     x="328.18628"
     y="505.62778"
     id="text3012"
     sodipodi:linespacing="129%"><tspan
       sodipodi:role="line"
       id="tspan3014"
       x="328.18628"
       y="505.62778">Pure</tspan><tspan
       sodipodi:role="line"
       x="328.18628"
       y="546.90778"
       id="tspan3016">ALOHA</tspan></text>
  <text
     xml:space="preserve"
     style="font-size:32px;font-style:normal;font-variant:normal;font-weight:normal;font-stretch:normal;text-align:start;line-height:128.99999619%;letter-spacing:0px;word-spacing:0px;writing-mode:lr-tb;text-anchor:start;fill:#000000;fill-opacity:1;stroke:none;font-family:Sans;-inkscape-font-specification:Sans"
     x="-554.64026"
     y="24.3125"
     id="text3018"
     sodipodi:linespacing="129%"
     transform="matrix(0,-1,1,0,0,0)"><tspan
       sodipodi:role="line"
       id="tspan3020"
       x="-554.64026"
       y="24.3125">Throughput per packet time</tspan></text>
  <text
     xml:space="preserve"
     style="font-size:32px;font-style:normal;font-variant:normal;font-weight:normal;font-stretch:normal;text-align:start;line-height:128.99999619%;letter-spacing:0px;word-spacing:0px;writing-mode:lr-tb;text-anchor:start;fill:#000000;fill-opacity:1;stroke:none;font-family:Sans;-inkscape-font-specification:Sans"
     x="571.5708"
     y="700.11621"
     id="text3022"
     sodipodi:linespacing="129%"><tspan
       sodipodi:role="line"
       id="tspan3024"
       x="571.5708"
       y="700.11621">Attempts per packet time</tspan></text>
  <text
     xml:space="preserve"
     style="font-size:29.87494469px;font-style:normal;font-variant:normal;font-weight:normal;font-stretch:normal;text-align:start;line-height:200%;letter-spacing:0px;word-spacing:0px;writing-mode:lr-tb;text-anchor:start;fill:#000000;fill-opacity:1;stroke:none;font-family:Sans;-inkscape-font-specification:Sans"
     x="49.99342"
     y="45.879032"
     id="text3026"
     sodipodi:linespacing="200%"><tspan
       sodipodi:role="line"
       id="tspan3028"
       x="49.99342"
       y="45.879032">1.0</tspan><tspan
       sodipodi:role="line"
       x="49.99342"
       y="105.62892"
       id="tspan3030">0.9</tspan><tspan
       sodipodi:role="line"
       x="49.99342"
       y="165.37881"
       id="tspan3032">0.8</tspan><tspan
       sodipodi:role="line"
       x="49.99342"
       y="225.12869"
       id="tspan3034">0.7</tspan><tspan
       sodipodi:role="line"
       x="49.99342"
       y="284.8786"
       id="tspan3036">0.6</tspan><tspan
       sodipodi:role="line"
       x="49.99342"
       y="344.62848"
       id="tspan3038">0.5</tspan><tspan
       sodipodi:role="line"
       x="49.99342"
       y="404.37839"
       id="tspan3040">0.4</tspan><tspan
       sodipodi:role="line"
       x="49.99342"
       y="464.12827"
       id="tspan3042">0.3</tspan><tspan
       sodipodi:role="line"
       x="49.99342"
       y="523.87817"
       id="tspan3044">0.2</tspan><tspan
       sodipodi:role="line"
       x="49.99342"
       y="583.62805"
       id="tspan3046">0.1</tspan><tspan
       sodipodi:role="line"
       x="49.99342"
       y="643.37793"
       id="tspan3048">0</tspan></text>
  <text
     xml:space="preserve"
     style="font-size:32px;font-style:normal;font-variant:normal;font-weight:normal;font-stretch:normal;text-align:start;line-height:128.99999619%;letter-spacing:0px;word-spacing:0px;writing-mode:lr-tb;text-anchor:start;fill:#000000;fill-opacity:1;stroke:none;font-family:Sans;-inkscape-font-specification:Sans"
     x="94.266182"
     y="667.52789"
     id="text3050"
     sodipodi:linespacing="129%"><tspan
       sodipodi:role="line"
       id="tspan3052"
       x="94.266182"
       y="667.52789">0</tspan></text>
  <text
     xml:space="preserve"
     style="font-size:32px;font-style:normal;font-variant:normal;font-weight:normal;font-stretch:normal;text-align:start;line-height:128.99999619%;letter-spacing:0px;word-spacing:0px;writing-mode:lr-tb;text-anchor:start;fill:#000000;fill-opacity:1;stroke:none;font-family:Sans;-inkscape-font-specification:Sans"
     x="247.72157"
     y="667.54156"
     id="text3054"
     sodipodi:linespacing="129%"><tspan
       sodipodi:role="line"
       id="tspan3056"
       x="247.72157"
       y="667.54156">1</tspan></text>
  <text
     xml:space="preserve"
     style="font-size:32px;font-style:normal;font-variant:normal;font-weight:normal;font-stretch:normal;text-align:start;line-height:128.99999619%;letter-spacing:0px;word-spacing:0px;writing-mode:lr-tb;text-anchor:start;fill:#000000;fill-opacity:1;stroke:none;font-family:Sans;-inkscape-font-specification:Sans"
     x="402.05194"
     y="667.72614"
     id="text3058"
     sodipodi:linespacing="129%"><tspan
       sodipodi:role="line"
       id="tspan3060"
       x="402.05194"
       y="667.72614">2</tspan></text>
  <text
     xml:space="preserve"
     style="font-size:32px;font-style:normal;font-variant:normal;font-weight:normal;font-stretch:normal;text-align:start;line-height:128.99999619%;letter-spacing:0px;word-spacing:0px;writing-mode:lr-tb;text-anchor:start;fill:#000000;fill-opacity:1;stroke:none;font-family:Sans;-inkscape-font-specification:Sans"
     x="555.43896"
     y="667.52789"
     id="text3062"
     sodipodi:linespacing="129%"><tspan
       sodipodi:role="line"
       id="tspan3064"
       x="555.43896"
       y="667.52789">3</tspan></text>
  <text
     xml:space="preserve"
     style="font-size:32px;font-style:normal;font-variant:normal;font-weight:normal;font-stretch:normal;text-align:start;line-height:128.99999619%;letter-spacing:0px;word-spacing:0px;writing-mode:lr-tb;text-anchor:start;fill:#000000;fill-opacity:1;stroke:none;font-family:Sans;-inkscape-font-specification:Sans"
     x="709.19513"
     y="667.54156"
     id="text3066"
     sodipodi:linespacing="129%"><tspan
       sodipodi:role="line"
       id="tspan3068"
       x="709.19513"
       y="667.54156">4</tspan></text>
  <text
     xml:space="preserve"
     style="font-size:32px;font-style:normal;font-variant:normal;font-weight:normal;font-stretch:normal;text-align:start;line-height:128.99999619%;letter-spacing:0px;word-spacing:0px;writing-mode:lr-tb;text-anchor:start;fill:#000000;fill-opacity:1;stroke:none;font-family:Sans;-inkscape-font-specification:Sans"
     x="862.94446"
     y="667.34332"
     id="text3070"
     sodipodi:linespacing="129%"><tspan
       sodipodi:role="line"
       id="tspan3072"
       x="862.94446"
       y="667.34332">5</tspan></text>
  <text
     xml:space="preserve"
     style="font-size:32px;font-style:normal;font-variant:normal;font-weight:normal;font-stretch:normal;text-align:start;line-height:128.99999619%;letter-spacing:0px;word-spacing:0px;writing-mode:lr-tb;text-anchor:start;fill:#000000;fill-opacity:1;stroke:none;font-family:Sans;-inkscape-font-specification:Sans"
     x="1016.4136"
     y="667.52789"
     id="text3074"
     sodipodi:linespacing="129%"><tspan
       sodipodi:role="line"
       id="tspan3076"
       x="1016.4136"
       y="667.52789">6</tspan></text>
  <text
     xml:space="preserve"
     style="font-size:32px;font-style:normal;font-variant:normal;font-weight:normal;font-stretch:normal;text-align:start;line-height:128.99999619%;letter-spacing:0px;word-spacing:0px;writing-mode:lr-tb;text-anchor:start;fill:#000000;fill-opacity:1;stroke:none;font-family:Sans;-inkscape-font-specification:Sans"
     x="1170.2655"
     y="667.54156"
     id="text3078"
     sodipodi:linespacing="129%"><tspan
       sodipodi:role="line"
       id="tspan3080"
       x="1170.2655"
       y="667.54156">7</tspan></text>
  <text
     xml:space="preserve"
     style="font-size:32px;font-style:normal;font-variant:normal;font-weight:normal;font-stretch:normal;text-align:start;line-height:128.99999619%;letter-spacing:0px;word-spacing:0px;writing-mode:lr-tb;text-anchor:start;fill:#000000;fill-opacity:1;stroke:none;font-family:Sans;-inkscape-font-specification:Sans"
     x="1323.9327"
     y="667.52789"
     id="text3082"
     sodipodi:linespacing="129%"><tspan
       sodipodi:role="line"
       id="tspan3084"
       x="1323.9327"
       y="667.52789">8</tspan></text>
  <text
     xml:space="preserve"
     style="font-size:32px;font-style:normal;font-variant:normal;font-weight:normal;font-stretch:normal;text-align:start;line-height:128.99999619%;letter-spacing:0px;word-spacing:0px;writing-mode:lr-tb;text-anchor:start;fill:#000000;fill-opacity:1;stroke:none;font-family:Sans;-inkscape-font-specification:Sans"
     x="1477.7367"
     y="667.52789"
     id="text3086"
     sodipodi:linespacing="129%"><tspan
       sodipodi:role="line"
       id="tspan3088"
       x="1477.7367"
       y="667.52789">9</tspan></text>
  <text
     xml:space="preserve"
     style="font-size:28px;font-style:normal;font-variant:normal;font-weight:normal;font-stretch:normal;text-align:start;line-height:125%;letter-spacing:0px;word-spacing:0px;writing-mode:lr-tb;text-anchor:start;fill:#000000;fill-opacity:1;stroke:none;font-family:Sans;-inkscape-font-specification:Sans"
     x="1011.3425"
     y="698.89594"
     id="text3091"
     sodipodi:linespacing="125%"><tspan
       sodipodi:role="line"
       id="tspan3093"
       x="1011.3425"
       y="698.89594"
       style="font-size:18px;font-style:normal;font-variant:normal;font-weight:normal;font-stretch:normal;text-align:start;line-height:125%;writing-mode:lr-tb;text-anchor:start;font-family:Sans;-inkscape-font-specification:Sans">Data from http://www.cs.ru.nl/~ths/a3/html/h4/h4.html</tspan></text>
</svg>
